PathFileType	4	(X/Y/Z)	/Users/itak/Documents/Research/Walk-IL/dataset/trc/00146_00007.trc
DataRate	CameraRate	NumFrames	NumMarkers	Units	OrigDataRate	OrigDataStartFrame	OrigNumFrames
100.000000	100.000000	4	53	mm	100.000000	0	550
Frame#	Time	RPSI			LPSI			L3			STRN			T10			C7			CLAV			RBAK			LBAK			LSHO			LUPA			LAEL			LAOL			LWTS			LWPS			LFRA			LIFD			LHPS			LHTS			RSHO			RUPA			RAEL			RAOL			RWTS			RWPS			RFRA			RIFD			RHTS			RHPS			RBHD			LFHD			RFHD			LBHD			LHIP			RHIP			RASI			LASI			LKNE			LTHI			LANK			LTIP			LTOE			LMT1			LMT5			LHEE			RKNE			RTHI			RANK			RTIP			RTOE			RMT1			RMT5			RHEE			
		X1	Y1	Z1	X2	Y2	Z2	X3	Y3	Z3	X4	Y4	Z4	X5	Y5	Z5	X6	Y6	Z6	X7	Y7	Z7	X8	Y8	Z8	X9	Y9	Z9	X10	Y10	Z10	X11	Y11	Z11	X12	Y12	Z12	X13	Y13	Z13	X14	Y14	Z14	X15	Y15	Z15	X16	Y16	Z16	X17	Y17	Z17	X18	Y18	Z18	X19	Y19	Z19	X20	Y20	Z20	X21	Y21	Z21	X22	Y22	Z22	X23	Y23	Z23	X24	Y24	Z24	X25	Y25	Z25	X26	Y26	Z26	X27	Y27	Z27	X28	Y28	Z28	X29	Y29	Z29	X30	Y30	Z30	X31	Y31	Z31	X32	Y32	Z32	X33	Y33	Z33	X34	Y34	Z34	X35	Y35	Z35	X36	Y36	Z36	X37	Y37	Z37	X38	Y38	Z38	X39	Y39	Z39	X40	Y40	Z40	X41	Y41	Z41	X42	Y42	Z42	X43	Y43	Z43	X44	Y44	Z44	X45	Y45	Z45	X46	Y46	Z46	X47	Y47	Z47	X48	Y48	Z48	X49	Y49	Z49	X50	Y50	Z50	X51	Y51	Z51	X52	Y52	Z52	X53	Y53	Z53	

1	0	-880.3440551757812	1128.408081054688	1222.318603515625	-879.1566772460938	1128.209106445312	1087.856689453125	-887.2872924804688	1157.935424804688	1152.084716796875	-683.7047729492188	1365.729614257812	1152.101684570312	-936.82373046875	1303.351928710938	1148.314208984375	-919.5906982421875	1596.755126953125	1133.420532226562	-730.4510498046875	1497.614501953125	1146.238647460938	-965.8219604492188	1410.172973632812	1220.781372070312	-922.4009399414062	1575.348388671875	1030.980712890625	-833.1886596679688	1563.881225585938	964.6798095703125	-843.2269897460938	1430.1396484375	896.2265625	-807.2378540039062	1211.296020507812	880.5520629882812	-877.017822265625	1195.705810546875	933.4635009765625	-685.3875732421875	966.7447509765625	943.3143920898438	-760.5869140625	931.3440551757812	910.069580078125	-778.9212646484375	1096.9345703125	882.5919799804688	-651.4786376953125	777.135009765625	969.8596801757812	-724.0042114257812	860.1957397460938	915.4120483398438	-660.5429077148438	880.2640991210938	937.1547241210938	-865.6989135742188	1579.932983398438	1316.365844726562	-879.9739990234375	1506.096801757812	1380.568969726562	-871.0311279296875	1210.115112304688	1396.392944335938	-878.6632690429688	1211.005126953125	1300.84228515625	-715.2398071289062	973.6018676757812	1377.519287109375	-788.9395751953125	953.9790649414062	1410.838989257812	-843.3991088867188	1138.087890625	1411.263427734375	-676.9793701171875	781.7499389648438	1362.3037109375	-679.42578125	868.4164428710938	1383.478637695312	-745.69921875	856.1716918945312	1412.355712890625	-880.44091796875	1774.078247070312	1212.869506835938	-728.7835693359375	1841.21044921875	1068.220703125	-720.467529296875	1850.2607421875	1197.680419921875	-895.9820556640625	1768.57861328125	1078.693969726562	-784.31103515625	1038.876342773438	981.5914916992188	-749.1187133789062	1036.270751953125	1340.215698242188	-671.1660766601562	1110.834228515625	1287.82421875	-676.6895141601562	1107.676391601562	1020.597534179688	-766.9768676757812	540.4708251953125	1004.350280761719	-785.24560546875	686.775146484375	979.8043823242188	-888.872314453125	38.94676971435547	1008.993286132812	-872.8411254882812	294.738525390625	978.0647583007812	-656.6106567382812	41.17988204956055	1065.299438476562	-738.39013671875	43.24966430664062	1099.207397460938	-761.72412109375	39.90000915527344	984.4537963867188	-959.6172485351562	41.37229919433594	1069.564453125	-760.4057006835938	544.8948974609375	1320.044189453125	-733.3887939453125	823.684814453125	1339.339477539062	-883.3675537109375	34.75584411621094	1325.363159179688	-790.4349975585938	411.4851989746094	1335.686767578125	-654.3148803710938	49.4462890625	1261.474243164062	-716.4546508789062	39.60644912719727	1222.98583984375	-748.35693359375	42.07016372680664	1341.317626953125	-943.8884887695312	35.51982498168945	1280.089233398438	
2	0.01	-880.4917602539062	1128.404418945312	1221.981567382812	-879.071044921875	1128.168212890625	1087.5146484375	-887.32373046875	1157.9248046875	1151.791748046875	-683.7583618164062	1365.704467773438	1152.032958984375	-936.7919921875	1303.4482421875	1147.9658203125	-919.3822631835938	1596.798461914062	1133.123291015625	-730.3577880859375	1497.58154296875	1146.175415039062	-965.9053955078125	1410.250854492188	1220.430419921875	-922.0785522460938	1575.470458984375	1030.671264648438	-832.7709350585938	1563.87646484375	964.5087280273438	-842.8079223632812	1430.162719726562	896.0236206054688	-807.0579223632812	1211.266479492188	880.4051513671875	-877.118408203125	1195.822021484375	932.9400634765625	-686.052978515625	966.4197998046875	943.8934326171875	-761.0457153320312	931.1701049804688	910.1228637695312	-778.9904174804688	1096.84765625	882.5808715820312	-652.8050537109375	776.7172241210938	970.6561279296875	-724.7828979492188	859.9442138671875	915.7722778320312	-661.4201049804688	879.895263671875	937.88427734375	-865.7718505859375	1579.9365234375	1316.143310546875	-880.1011352539062	1506.077880859375	1380.34228515625	-871.2314453125	1210.11865234375	1396.01513671875	-878.662109375	1210.962890625	1300.461791992188	-715.3613891601562	973.6368408203125	1377.530639648438	-789.1981201171875	953.9671020507812	1410.561767578125	-843.6121826171875	1138.09130859375	1410.91259765625	-676.8358154296875	781.80517578125	1362.391235351562	-679.46728515625	868.489013671875	1383.572021484375	-745.8159790039062	856.1663818359375	1412.276245117188	-880.3526611328125	1773.990966796875	1212.668579101562	-728.7493286132812	1841.292358398438	1067.98486328125	-720.4800415039062	1850.473266601562	1197.455078125	-895.821533203125	1768.372680664062	1078.503540039062	-784.2634887695312	1038.85302734375	981.4976196289062	-749.372802734375	1036.265014648438	1340.06787109375	-671.3243408203125	1110.813232421875	1287.701416015625	-676.619140625	1107.629028320312	1020.488952636719	-766.9442749023438	540.4652099609375	1004.285217285156	-785.1543579101562	686.757568359375	979.6964721679688	-888.864013671875	38.94174194335938	1008.976318359375	-872.8245239257812	294.7041625976562	977.9978637695312	-656.61328125	41.18153762817383	1065.300415039062	-738.388916015625	43.25026702880859	1099.216430664062	-761.7223510742188	39.90042877197266	984.4541015625	-959.6332397460938	41.37325286865234	1069.532836914062	-760.4721069335938	544.9193725585938	1319.970458984375	-733.5343017578125	823.7210693359375	1339.245849609375	-883.3598022460938	34.75135040283203	1325.35302734375	-790.5115966796875	411.4976501464844	1335.589111328125	-654.3192138671875	49.48918533325195	1261.497192382812	-716.4619750976562	39.62346267700195	1222.989379882812	-748.3555908203125	42.06867218017578	1341.317993164062	-943.88818359375	35.51676940917969	1280.086547851562	
3	0.02	-880.6555786132812	1128.408325195312	1221.558227539062	-878.959228515625	1128.131103515625	1087.0869140625	-887.3482055664062	1157.910888671875	1151.418334960938	-683.8135986328125	1365.672241210938	1151.94580078125	-936.7384643554688	1303.559204101562	1147.537353515625	-919.1094360351562	1596.850341796875	1132.765869140625	-730.2344360351562	1497.541625976562	1146.093505859375	-965.9764404296875	1410.347290039062	1219.998413085938	-921.68017578125	1575.614379882812	1030.296752929688	-832.2547607421875	1563.87255859375	964.2952880859375	-842.2870483398438	1430.192260742188	895.7667846679688	-806.8301391601562	1211.2333984375	880.2130126953125	-877.2476806640625	1195.97265625	932.2559814453125	-686.9127807617188	966.00927734375	944.601318359375	-761.6438598632812	930.9522094726562	910.1600341796875	-779.0723266601562	1096.743408203125	882.5599365234375	-654.5179443359375	776.1919555664062	971.6395874023438	-725.7850952148438	859.622802734375	916.1903686523438	-662.5521240234375	879.4210205078125	938.7894287109375	-865.8449096679688	1579.940795898438	1315.873046875	-880.2456665039062	1506.060913085938	1380.05810546875	-871.4815063476562	1210.128295898438	1395.557861328125	-878.6574096679688	1210.915283203125	1299.994262695312	-715.5176391601562	973.6800537109375	1377.55419921875	-789.5275268554688	953.9420776367188	1410.194580078125	-843.8779907226562	1138.095581054688	1410.473754882812	-676.642333984375	781.889892578125	1362.537353515625	-679.5135498046875	868.5902099609375	1383.7265625	-745.9649658203125	856.1597290039062	1412.177734375	-880.2284545898438	1773.886352539062	1212.410400390625	-728.6920166015625	1841.393676757812	1067.689086914062	-720.4884033203125	1850.734985351562	1197.173461914062	-895.616943359375	1768.12451171875	1078.260986328125	-784.1930541992188	1038.820068359375	981.3809814453125	-749.6749877929688	1036.263427734375	1339.885620117188	-671.5036010742188	1110.788818359375	1287.550537109375	-676.52001953125	1107.566040039062	1020.353698730469	-766.9118041992188	540.4559326171875	1004.202514648438	-785.0423583984375	686.7328491210938	979.56201171875	-888.853759765625	38.93399810791016	1008.955200195312	-872.8079223632812	294.6636657714844	977.911376953125	-656.6182861328125	41.18328475952148	1065.301879882812	-738.388916015625	43.25088882446289	1099.224731445312	-761.7213134765625	39.90024948120117	984.4530029296875	-959.6521606445312	41.3753547668457	1069.4951171875	-760.5535888671875	544.9462890625	1319.876953125	-733.7257080078125	823.7659301757812	1339.149658203125	-883.3504638671875	34.7479362487793	1325.341918945312	-790.6074829101562	411.5135192871094	1335.47216796875	-654.3182983398438	49.53454971313477	1261.521362304688	-716.46923828125	39.63918304443359	1222.992919921875	-748.353759765625	42.06788635253906	1341.317993164062	-943.886474609375	35.51303863525391	1280.082763671875	
4	0.03	-880.8133544921875	1128.422119140625	1221.069091796875	-878.8245849609375	1128.107666015625	1086.596435546875	-887.3519287109375	1157.897705078125	1150.979736328125	-683.8614501953125	1365.634155273438	1151.84228515625	-936.6572265625	1303.675170898438	1147.052490234375	-918.7778930664062	1596.90869140625	1132.369995117188	-730.082763671875	1497.497314453125	1145.994384765625	-966.0154418945312	1410.457763671875	1219.505737304688	-921.2219848632812	1575.76953125	1029.87744140625	-831.6625366210938	1563.871337890625	964.0480346679688	-841.6909790039062	1430.228515625	895.4667358398438	-806.5640869140625	1211.200073242188	879.9801635742188	-877.3997192382812	1196.15234375	931.4353637695312	-687.9427490234375	965.5283813476562	945.3919677734375	-762.373046875	930.7005615234375	910.1697387695312	-779.1637573242188	1096.62841796875	882.5252075195312	-656.569091796875	775.580322265625	972.757568359375	-726.9810791015625	859.2451782226562	916.6311645507812	-663.9051513671875	878.8550415039062	939.8193969726562	-865.9036254882812	1579.945556640625	1315.570190429688	-880.3932495117188	1506.05029296875	1379.726928710938	-871.7646484375	1210.146240234375	1395.05126953125	-878.6482543945312	1210.867553710938	1299.467041015625	-715.7023315429688	973.7291870117188	1377.591918945312	-789.9170532226562	953.9005737304688	1409.742919921875	-844.1821899414062	1138.100219726562	1409.971435546875	-676.405517578125	782.0081787109375	1362.750732421875	-679.5631103515625	868.718994140625	1383.94775390625	-746.13818359375	856.1536254882812	1412.067993164062	-880.0678100585938	1773.771362304688	1212.103759765625	-728.608154296875	1841.509521484375	1067.346923828125	-720.4876098632812	1851.032104492188	1196.848876953125	-895.37451171875	1767.848510742188	1077.975952148438	-784.0978393554688	1038.778442382812	981.2474975585938	-750.0054321289062	1036.266723632812	1339.677856445312	-671.6882934570312	1110.76171875	1287.380737304688	-676.3912963867188	1107.489135742188	1020.198669433594	-766.8851928710938	540.4418334960938	1004.1044921875	-784.9172973632812	686.701416015625	979.4075317382812	-888.8421630859375	38.92363739013672	1008.931396484375	-872.7943115234375	294.6206665039062	977.8084716796875	-656.6253662109375	41.1851921081543	1065.303588867188	-738.3905029296875	43.25149536132812	1099.230834960938	-761.7212524414062	39.89925384521484	984.4503173828125	-959.6725463867188	41.37752914428711	1069.45458984375	-760.6458129882812	544.9727172851562	1319.765991210938	-733.9556884765625	823.8161010742188	1339.063598632812	-883.3399047851562	34.74686431884766	1325.33056640625	-790.7178344726562	411.5325927734375	1335.34375	-654.30859375	49.5758171081543	1261.544067382812	-716.4749755859375	39.65066528320312	1222.995483398438	-748.3509521484375	42.06782150268555	1341.317260742188	-943.8825073242188	35.50923538208008	1280.078002929688	
